<svg xmlns="http://www.w3.org/2000/svg" width="1600" height="1600"><style>.st0{fill:#fff}.st1{fill:none;stroke:#231f20;stroke-width:50;stroke-linecap:round;stroke-linejoin:round;stroke-miterlimit:10}@media (prefers-color-scheme:dark){.st0{fill:none}.st1{stroke:#fff}}</style><g id="g277" transform="translate(-159.253 -139.25)"><path class="st0" d="M1336.7 747.6s179.4 57.2 104 539l-115.3-84s13.1 82.9-137.8 205v.9c-.8 0-1.7-.1-2.5-.1-25.3 0-46 20.7-46 46 0-12.7-5.2-24.2-13.5-32.5s-19.8-13.5-32.5-13.5c-25.3 0-46 20.7-46 46v47.9c-15.2 8.7-31.1 17.6-48 26.5a86.22 86.22 0 0 1-41.3 10.2c-7.2 0-14.3-.9-21.2-2.7-6.9-1.8-13.6-4.4-20-7.8-15.2-8.2-29.8-16.3-43.6-24.4v-49.7c0-12.7-5.2-24.2-13.5-32.5s-19.8-13.5-32.5-13.5c-25.3 0-46 20.7-46 46 0-12.7-5.2-24.2-13.5-32.5s-19.8-13.5-32.5-13.5c-1.1 0-2.3 0-3.4.1v-.2c-153-124.2-139.2-208.1-139.2-208.1l-115.9 83.3C404.2 801.2 584 745.2 584 745.2c-159.4-140.7-36-292.8-36-292.8-65.8-201.9 13.1-243.5 13.1-243.5l139.9 84c79-85.8 261-82.8 261-82.8s182-1.9 260.5 84.5l140.5-83.2s78.6 42.1 11.5 243.6c0 0 122.5 152.9-37.8 292.6zm-376.8 19.5s57.5-21.5 57.5-97.2-57.5-94.1-57.5-94.1-57.5 21.5-57.5 97.2c.1 75.7 57.5 94.1 57.5 94.1z" id="Layer_10"/><path class="st0" d="M1017.4 669.9c0 75.7-57.5 97.2-57.5 97.2s-57.5-18.4-57.5-94.1c0-75.7 57.5-97.2 57.5-97.2s57.5 18.4 57.5 94.1z" id="Layer_11"/><g id="Layer_12"><path class="st0" d="M1231.1 1454.4v169.2c0 25.3-20.7 46-46 46s-46-20.7-46-46v-169.2c0-25.3 20.7-46 46-46 .8 0 1.7 0 2.5.1 11.7.6 22.2 5.7 30 13.4 8.3 8.4 13.5 19.9 13.5 32.5z" id="path200"/><path class="st0" d="M1139.1 1454.4v169.2c0 25.3-20.7 46-46 46s-46-20.7-46-46v-169.2c0-25.3 20.7-46 46-46 12.7 0 24.2 5.2 32.5 13.5 8.3 8.4 13.5 19.9 13.5 32.5z" id="path202"/><path class="st0" d="M872.9 1504.1v119.5c0 25.3-20.7 46-46 46-12.6 0-24.1-5.2-32.5-13.5-8.3-8.3-13.5-19.8-13.5-32.5v-169.2c0-25.3 20.7-46 46-46 12.7 0 24.2 5.2 32.5 13.5s13.5 19.8 13.5 32.5z" id="path204"/><path class="st0" d="M780.9 1454.4v169.2c0 25.3-20.7 46-46 46s-46-20.7-46-46v-169.2c0-24.2 18.9-44.1 42.6-45.9 1.1-.1 2.2-.1 3.4-.1 12.7 0 24.2 5.2 32.5 13.5 8.4 8.4 13.5 19.9 13.5 32.5z" id="path206"/></g><g id="STROKES"><path class="st1" d="M780.9 1623.6c0 25.3-20.7 46-46 46s-46-20.7-46-46v-169.2c0-24.2 18.9-44.1 42.6-45.9 1.1-.1 2.2-.1 3.4-.1 12.7 0 24.2 5.2 32.5 13.5s13.5 19.8 13.5 32.5" id="path209"/><path class="st1" d="M872.9 1504.1v119.5c0 25.3-20.7 46-46 46-12.6 0-24.1-5.2-32.5-13.5-8.3-8.3-13.5-19.8-13.5-32.5v-169.2c0-25.3 20.7-46 46-46 12.7 0 24.2 5.2 32.5 13.5s13.5 19.8 13.5 32.5v49.7" id="path211"/><path class="st1" d="M1139.1 1623.6c0 25.3-20.7 46-46 46s-46-20.7-46-46v-169.2c0-25.3 20.7-46 46-46 12.7 0 24.2 5.2 32.5 13.5s13.5 19.8 13.5 32.5" id="path213"/><path class="st1" d="M1187.6 1408.5c11.7.6 22.2 5.7 30 13.4 8.3 8.3 13.5 19.8 13.5 32.5v169.2c0 25.3-20.7 46-46 46s-46-20.7-46-46v-169.2c0-25.3 20.7-46 46-46 .8 0 1.6 0 2.5.1z" id="path215"/><path class="st1" d="M643.8 561.8c0-46.1 37.3-83.4 83.4-83.4 46.1 0 83.4 37.4 83.4 83.4" id="path217"/><path class="st1" d="M1109.5 561.8c0-46.1 37.3-83.4 83.4-83.4 46.1 0 83.4 37.4 83.4 83.4" id="path219"/><path class="st1" d="M731.5 1408.3c-153-124.2-139.2-208.1-139.2-208.1l-115.9 83.3C404.2 801.2 584 745.2 584 745.2c-159.4-140.7-36-292.8-36-292.8-65.8-201.9 13.1-243.5 13.1-243.5l139.9 84c79-85.8 261-82.8 261-82.8" id="path221"/><path class="st1" d="M1047.1 1502.3c-15.2 8.7-31.1 17.6-48 26.5a86.22 86.22 0 0 1-41.3 10.2c-7.2 0-14.3-.9-21.2-2.7-6.9-1.8-13.6-4.4-20-7.8-15.2-8.2-29.8-16.3-43.6-24.4" id="path223"/><path class="st1" d="M962 210.1s182-1.9 260.5 84.5l140.5-83.2s78.6 42.1 11.5 243.6c0 0 122.5 152.9-37.8 292.6 0 0 179.4 57.2 104 539l-115.3-84s13.1 82.9-137.8 205" id="path225"/><path class="st1" d="M959.9 575.8s-57.5 21.5-57.5 97.2 57.5 94.1 57.5 94.1" id="path227"/><path class="st1" d="M959.9 767.1s57.5-21.5 57.5-97.2-57.5-94.1-57.5-94.1" id="path229"/><path class="st1" d="M653.3 944.1l74.9 74.9 72.6-72.6" id="path231"/><path class="st1" d="M886.2 944.1l74.9 74.9 72.6-72.6" id="path233"/><path class="st1" d="M1119 944.1l74.9 74.9 72.6-72.6" id="path235"/><path class="st1" d="M769.8 1102.8l74.1 75.6 73.3-71.8" id="path237"/><path class="st1" d="M1002.6 1105.2l74.1 75.6 73.4-71.8" id="path239"/><path class="st1" d="M886.2 1262.2l74.1 75.6 73.4-71.8" id="path241"/></g></g></svg>